<?xml version="1.0" encoding="UTF-8"?>
<!DOCTYPE svg PUBLIC "-//W3C//DTD SVG 1.1//EN" "http://www.w3.org/Graphics/SVG/1.1/DTD/svg11.dtd">
<!-- Creator: CorelDRAW X7 -->
<svg xmlns="http://www.w3.org/2000/svg" xml:space="preserve" width="100%" height="100%" version="1.1" style="shape-rendering:geometricPrecision; text-rendering:geometricPrecision; image-rendering:optimizeQuality; fill-rule:evenodd; clip-rule:evenodd"
viewBox="0 0 100000 120000"
 xmlns:xlink="http://www.w3.org/1999/xlink">
 <defs>
  <style type="text/css">
   <![CDATA[
    .fil0 {fill:white}
   ]]>
  </style>
 </defs>
 <g id="Capa_x0020_1">
  <metadata id="CorelCorpID_0Corel-Layer"/>
  <path class="fil0" d="M85351 103852c-2298,2121 -4420,1768 -7071,177 -708,884 -1149,2563 -1415,3535l-2651 177c1060,-3535 3535,-6187 4773,-7071 1326,-972 3712,-1591 4773,-3359 -1680,-618 -3978,-1679 -2829,-3712 1061,1061 2829,2298 3801,2210 -1945,-1768 -3270,-4508 -1591,-6718 972,-1326 3712,-2475 6983,-442 3270,2033 3270,5922 1591,7425 -1326,1326 -3359,1591 -6011,353 796,1150 1680,1680 3713,2475 -266,796 -1945,1945 -4332,-618 -1237,1767 -4065,3005 -5038,3800 1945,-530 4243,707 5304,1768zm4154 -9811c972,-1326 1679,-4331 530,-5127 -1149,-795 -3535,884 -4419,2299 -1680,2563 -1061,4242 177,4596 1325,442 2563,-265 3712,-1768zm4154 -5568c-353,-354 -2033,-973 -2740,88 -442,88 -1149,-619 -1149,-796 265,-972 -88,-2033 -1061,-2651 177,-1061 1680,-89 2122,707 442,-442 972,-972 1767,-1238 89,796 -88,1503 -441,2210 1060,0 2209,1326 1502,1680zm2266 -21938c-558,3077 -2465,4072 -5540,4397 -33,1131 625,2738 998,3675l-2011 1737c-1281,-3462 -900,-7070 -444,-8520 474,-1575 2007,-3505 1791,-5555 -1714,517 -4188,1053 -4493,-1263 1485,209 3641,134 4365,-522 -2617,-242 -5325,-1632 -5314,-4408 -21,-1643 1476,-4210 5311,-4555 3835,-344 6176,2762 5739,4972 -261,1857 -1725,3292 -4587,3900 1326,439 2351,330 4454,-258 267,795 -383,2723 -3832,2113 76,2156 -1438,4847 -1736,6067 1234,-1594 3814,-1989 5299,-1780zm-2586 -10335c-22,-1644 -1266,-4470 -2662,-4414 -1396,56 -2292,2834 -2146,4495 201,3058 1706,4027 2907,3565 1325,-445 1887,-1755 1901,-3646zm-34 -6948c-495,-69 -2208,447 -2135,1720 -300,336 -1290,197 -1396,56 -374,-936 -1294,-1570 -2443,-1479 -497,-954 1288,-1082 2120,-712 87,-619 191,-1362 667,-2052 549,582 833,1253 977,2030 847,-638 2562,-271 2210,437zm2745 -20092c-558,3077 -2465,4072 -5540,4397 -33,1131 625,2738 998,3675l-2011 1737c-1281,-3462 -900,-7070 -444,-8520 474,-1575 2007,-3505 1791,-5555 -1714,517 -4188,1053 -4493,-1263 1485,209 3641,134 4365,-522 -2617,-242 -5325,-1632 -5314,-4408 -21,-1644 1476,-4210 5311,-4555 3835,-344 6176,2762 5739,4972 -261,1857 -1725,3292 -4587,3900 1326,439 2351,330 4454,-258 267,795 -383,2723 -3832,2113 76,2156 -1438,4847 -1736,6067 1234,-1594 3814,-1989 5299,-1780zm-2586 -10335c-22,-1644 -1266,-4470 -2662,-4414 -1396,56 -2292,2834 -2146,4495 201,3058 1706,4027 2907,3565 1325,-445 1887,-1755 1901,-3646zm-34 -6948c-495,-69 -2208,447 -2135,1720 -300,336 -1290,197 -1396,56 -374,-936 -1294,-1570 -2443,-1479 -497,-954 1288,-1082 2120,-712 87,-619 191,-1362 667,-2052 549,582 833,1253 977,2030 847,-638 2562,-271 2210,437zm-21217 -2574c3017,824 3841,2811 3897,5903 1125,131 2783,-384 3748,-675l1555 2155c-3560,975 -7121,281 -8526,-300 -1527,-609 -3316,-2305 -5378,-2268 366,1752 684,4263 -1649,4366 338,-1462 450,-3617 -140,-4394 -469,2586 -2090,5162 -4854,4909 -1639,-122 -4066,-1837 -4075,-5688 -9,-3850 3289,-5911 5454,-5283 1827,421 3129,2005 3484,4909 553,-1283 535,-2314 132,-4459 815,-197 2680,618 1770,4000 2155,113 4704,1856 5893,2259 -1480,-1368 -1648,-3973 -1311,-5434zm-10521 1676c-1640,-122 -4563,871 -4629,2267 -66,1396 2623,2530 4291,2530 3063,66 4160,-1349 3804,-2586 -328,-1358 -1583,-2033 -3466,-2211zm-6924 -572c-113,487 253,2239 1527,2276 309,328 84,1303 -66,1396 -965,291 -1677,1153 -1687,2305 -993,412 -965,-1377 -524,-2174 -609,-140 -1340,-309 -1986,-843 627,-497 1321,-721 2108,-796 -562,-900 -47,-2577 628,-2164zm-26856 -1354c-3017,824 -3841,2811 -3897,5903 -1124,131 -2783,-384 -3748,-675l-1555 2155c3560,975 7121,281 8526,-300 1527,-609 3316,-2305 5378,-2268 -366,1752 -684,4263 1649,4366 -337,-1462 -450,-3617 140,-4394 469,2586 2090,5162 4854,4909 1639,-122 4066,-1837 4075,-5688 9,-3850 -3289,-5911 -5453,-5283 -1827,421 -3130,2005 -3485,4909 -553,-1283 -535,-2314 -132,-4459 -815,-197 -2679,618 -1770,4000 -2155,113 -4703,1856 -5893,2259 1480,-1368 1648,-3973 1311,-5434zm10522 1676c1639,-122 4562,871 4628,2267 66,1396 -2623,2530 -4291,2530 -3063,66 -4160,-1349 -3804,-2586 328,-1358 1583,-2033 3467,-2211zm6923 -572c113,487 -252,2239 -1527,2276 -309,328 -84,1303 66,1396 965,291 1677,1153 1687,2305 993,412 965,-1377 524,-2174 609,-140 1340,-309 1986,-843 -627,-497 -1321,-721 -2108,-796 562,-900 47,-2577 -628,-2164zm-41532 18878c558,3077 2465,4072 5540,4397 33,1131 -624,2738 -998,3675l2011 1737c1281,-3462 900,-7070 444,-8520 -474,-1575 -2007,-3505 -1790,-5555 1713,517 4187,1053 4493,-1263 -1486,209 -3642,134 -4366,-522 2617,-242 5325,-1632 5314,-4408 21,-1644 -1476,-4210 -5311,-4555 -3835,-344 -6176,2762 -5739,4972 261,1857 1725,3292 4588,3900 -1327,439 -2352,330 -4455,-258 -267,795 383,2723 3832,2113 -76,2156 1438,4847 1736,6067 -1234,-1594 -3814,-1989 -5299,-1780zm2586 -10335c22,-1644 1266,-4470 2662,-4414 1396,56 2292,2834 2147,4495 -202,3058 -1707,4027 -2908,3565 -1325,-445 -1887,-1755 -1901,-3646zm34 -6948c495,-69 2209,447 2135,1720 300,336 1290,197 1396,56 374,-936 1294,-1570 2443,-1479 497,-954 -1288,-1082 -2119,-712 -87,-619 -192,-1362 -668,-2052 -549,582 -833,1253 -976,2030 -848,-638 -2563,-271 -2211,437zm-2620 54908c558,3077 2465,4072 5540,4397 33,1131 -624,2738 -998,3675l2011 1737c1281,-3462 900,-7070 444,-8520 -474,-1575 -2007,-3505 -1790,-5555 1713,517 4187,1053 4493,-1263 -1486,209 -3642,134 -4366,-522 2617,-242 5325,-1632 5314,-4408 21,-1643 -1476,-4210 -5311,-4555 -3835,-344 -6176,2762 -5739,4972 261,1857 1725,3292 4588,3900 -1327,439 -2352,330 -4455,-258 -267,795 383,2723 3832,2113 -76,2156 1438,4847 1736,6067 -1234,-1594 -3814,-1989 -5299,-1780zm2586 -10335c22,-1644 1266,-4470 2662,-4414 1396,56 2292,2834 2147,4495 -202,3058 -1707,4027 -2908,3565 -1325,-445 -1887,-1755 -1901,-3646zm34 -6948c495,-69 2209,447 2135,1720 300,336 1290,197 1396,56 374,-936 1294,-1570 2443,-1479 497,-954 -1288,-1082 -2119,-712 -87,-619 -192,-1362 -668,-2052 -549,582 -833,1253 -976,2030 -848,-638 -2563,-271 -2211,437zm7954 54475c2299,2121 4420,1768 7072,177 707,884 1149,2563 1414,3535l2651 177c-1060,-3535 -3535,-6187 -4773,-7071 -1325,-972 -3712,-1591 -4773,-3359 1680,-618 3978,-1679 2829,-3712 -1061,1061 -2829,2298 -3801,2210 1945,-1768 3271,-4508 1591,-6718 -972,-1326 -3712,-2475 -6983,-442 -3270,2033 -3270,5922 -1591,7425 1326,1326 3359,1591 6011,353 -796,1150 -1679,1680 -3712,2475 265,796 1944,1945 4331,-618 1237,1767 4065,3005 5038,3800 -1945,-530 -4243,707 -5304,1768zm-4154 -9811c-972,-1326 -1679,-4331 -530,-5127 1149,-795 3535,884 4419,2299 1680,2563 1061,4242 -176,4596 -1326,442 -2564,-265 -3713,-1768zm-4154 -5568c354,-354 2033,-973 2740,88 442,88 1149,-619 1149,-796 -265,-972 88,-2033 1061,-2651 -177,-1061 -1680,-89 -2122,707 -442,-442 -972,-972 -1767,-1238 -89,796 88,1503 442,2210 -1061,0 -2210,1326 -1503,1680zm43909 31527c-7875,-5000 -17375,-8000 -30875,-7625 -11000,-250 -19125,-10750 -19125,-21625l0 -90750c15250,8375 34625,8375 50000,125 15375,8250 34750,8250 50000,-125l0 90750c0,10875 -8125,21375 -19125,21625 -13500,-375 -23000,2625 -30875,7625zm0 -20875c5625,-3500 12500,-4750 19375,-4750 6875,0 12125,-6625 12125,-13500l0 -58375c-5250,2500 -11500,1250 -17375,1250 -4750,0 -9125,-1250 -14125,-3750 -5000,2500 -9375,3750 -14125,3750 -5875,0 -12125,1250 -17375,-1250l0 58375c0,6875 5250,13500 12125,13500 6875,0 13750,1250 19375,4750zm4625 13625c3125,-125 4375,-1875 5125,-4875 1125,125 2625,1000 3500,1500l2000 -1750c-3250,-1750 -6875,-1875 -8375,-1625 -1625,250 -3750,1500 -5750,1000 750,-1625 1625,-4000 -625,-4625 0,1500 -375,3625 -1125,4250 125,-2625 -875,-5500 -3625,-5875 -1625,-250 -4375,875 -5250,4625 -875,3750 1875,6500 4125,6375 1875,0 3500,-1250 4500,-4000 250,1375 0,2375 -875,4375 750,375 2750,0 2625,-3500 2125,375 5000,-750 6250,-875 -1750,1000 -2500,3500 -2500,5000zm-9875 -4000c-1625,-250 -4250,-1875 -4000,-3250 250,-1375 3125,-1875 4750,-1500 3000,625 3750,2250 3125,3375 -625,1250 -2000,1625 -3875,1375zm-6875 -1000c0,-500 750,-2125 2000,-1875 375,-250 375,-1250 250,-1375 -875,-500 -1375,-1500 -1125,-2625 -875,-625 -1250,1125 -1000,2000 -625,0 -1375,0 -2125,375 500,625 1125,1000 1875,1250 -750,750 -625,2500 125,2250zm24625 -15375l2875 -250c0,-3222 321,-5227 1007,-6748 1004,396 2104,-28 2618,-627 750,250 1625,-375 1625,-1875 667,-467 480,-1751 -409,-2640 182,-211 360,-414 534,-610 750,1000 2750,3875 5125,1250 -1250,-500 -3000,-1250 -4250,-2750 3375,1625 6625,750 7625,-2000 875,-2875 -1500,-5750 -4000,-6875 -2250,-1250 -5750,-1000 -6875,1625 -1125,2375 250,5250 2250,6750 -1750,0 -3000,-1375 -4250,-2375 -875,1375 125,3000 2375,3750 -146,109 -290,225 -433,345 -568,-59 -1218,14 -1942,280 -750,-375 -3375,-3500 -5750,-6000l2000 -625c-1125,-2125 -4875,-4750 -7500,-5875 -3500,-1500 -2375,-3875 -250,-2375 2750,2125 5625,3125 9625,1250 -2250,-875 -4875,-3750 -5250,-5625 4000,2500 9875,2500 13375,-750 -3500,625 -6875,-1125 -9375,-3375 4750,1250 10250,-750 13375,-4500 -3500,-125 -6875,-1250 -10125,-2375 5750,-125 11000,-3000 13000,-9250 -2500,1375 -8000,1750 -11500,1250 7125,-2750 11125,-8375 11250,-14875 -1750,2500 -8500,5750 -15125,8000 -3750,1250 -5000,5875 -5000,7625 0,1875 -5625,4250 -5625,-2250 250,-3750 1000,-9875 -2375,-9875l-5000 0c-3125,0 -3250,2250 -3125,5125 750,-250 2750,-500 4000,250 -125,750 -250,3375 -250,4500 0,6500 -5625,4125 -5625,2250 0,-1750 -1250,-6375 -5000,-7625 -6625,-2250 -13375,-5500 -15125,-8000 125,6500 4125,12125 11000,14875 -3500,500 -9000,125 -11500,-1250 2000,6250 7250,9125 13000,9250 -3250,1125 -6625,2250 -10125,2375 3125,3750 8625,5750 13375,4500 -2500,2250 -5875,4000 -9375,3375 3500,3250 9375,3250 13375,750 -375,1875 -3000,4750 -5250,5625 4000,1875 6875,875 9625,-1250 2125,-1500 3250,875 -250,2375 -2625,1125 -6375,3750 -7500,5875l2000 625c-2375,2500 -5000,5625 -5750,6000 -724,-266 -1374,-339 -1941,-280 -143,-120 -288,-236 -434,-345 2250,-750 3250,-2375 2375,-3750 -1250,1000 -2500,2375 -4250,2375 2000,-1500 3375,-4375 2250,-6750 -1125,-2625 -4625,-2875 -6875,-1625 -2500,1125 -4875,4000 -4000,6875 1000,2750 4250,3625 7625,2000 -1250,1500 -3000,2250 -4250,2750 2375,2625 4375,-250 5125,-1250 174,196 352,399 534,610 -889,889 -1076,2173 -409,2640 0,1500 875,2125 1625,1875 514,599 1614,1023 2618,627 687,1521 1007,3526 1007,6748l2875 250c-500,-4750 -1875,-8250 -2625,-9375l-62 -92c482,-313 735,-718 312,-1283l0 -250c1875,-1750 2500,-1625 7125,-4875l500 2000c1125,-1375 3125,-2750 4250,-2875 -1750,2500 -2875,5625 -2250,10000 625,-1000 1750,-1875 3000,-1750 -2000,4125 -500,8500 2250,13000 2750,-4500 4250,-8875 2250,-13000 1250,-125 2375,750 3000,1750 625,-4375 -500,-7500 -2250,-10000 1125,125 3125,1500 4250,2875l500 -2000c4625,3250 5250,3125 7125,4875l0 250c-423,565 -169,970 312,1283l-62 92c-750,1125 -2125,4625 -2625,9375zm-14250 -58500c1500,0 1500,-2375 0,-2375 -1500,0 -1500,2375 0,2375zm-3625 -8875l4000 1375 1375 -3750 1375 3750 4000 -1500 -2625 3875 -5500 125 -2625 -3875zm-16500 52750c1875,-500 1875,-3000 1000,-4375 -1000,-1625 -2375,-3625 -4375,-3625 -2250,-125 -1750,3250 -1000,4625 750,1625 2375,3875 4375,3375zm14000 3875c125,3875 -2625,6375 -5250,6125 -125,-3375 2375,-6000 5250,-6125zm-19375 -11750c-875,-1125 -2375,-750 -3000,-125 -500,-625 875,-1750 1750,-1875 -250,-1125 -500,-1625 -375,-2250 750,125 1375,625 2000,1250 750,-1250 2125,-1125 2250,-750 -1000,500 -1625,1750 -1250,2875 -125,375 -750,875 -1375,875zm49125 7875c-1875,-500 -1875,-3000 -1000,-4375 1000,-1625 2375,-3625 4375,-3625 2250,-125 1750,3250 1000,4625 -750,1625 -2375,3875 -4375,3375zm-14000 3875c-125,3875 2625,6375 5250,6125 125,-3375 -2375,-6000 -5250,-6125zm19375 -11750c875,-1125 2375,-750 3000,-125 500,-625 -875,-1750 -1750,-1875 250,-1125 500,-1625 375,-2250 -750,125 -1375,625 -2000,1250 -750,-1250 -2125,-1125 -2250,-750 1000,500 1625,1750 1250,2875 125,375 750,875 1375,875z"/>
 </g>
</svg>
