<?xml version="1.0" encoding="UTF-8"?>
<!DOCTYPE svg PUBLIC "-//W3C//DTD SVG 1.1//EN" "http://www.w3.org/Graphics/SVG/1.1/DTD/svg11.dtd">
<!-- Creator: CorelDRAW X7 -->
<svg xmlns="http://www.w3.org/2000/svg" xml:space="preserve" width="100%" height="100%" version="1.1" style="shape-rendering:geometricPrecision; text-rendering:geometricPrecision; image-rendering:optimizeQuality; fill-rule:evenodd; clip-rule:evenodd"
viewBox="0 0 119912 85991"
 xmlns:xlink="http://www.w3.org/1999/xlink">
 <defs>
  <style type="text/css">
   <![CDATA[
    .fil0 {fill:white}
   ]]>
  </style>
 </defs>
 <g id="Capa_x0020_1">
  <metadata id="CorelCorpID_0Corel-Layer"/>
  <path class="fil0" d="M63332 21363c634,469 1100,1124 1100,1968 0,839 -474,1507 -1111,1978l0 16185c640,473 1111,1148 1111,1979 0,642 -277,1184 -693,1614 661,730 1059,1659 1059,2673 0,841 -274,1623 -742,2280 81,117 147,246 195,385 140,406 109,837 -88,1219l-842 1632 0 6659c640,473 1111,1148 1111,1979 0,442 -134,840 -354,1187 55,68 106,140 151,218l513 889c280,485 280,1069 0,1553l-513 889c-78,134 -172,254 -281,356 326,796 484,1663 484,2518 0,898 -172,1800 -529,2624l1311 3193c296,720 13,1548 -662,1937l-4 2c-131,192 -261,428 -364,614 -250,450 -480,922 -664,1403 -116,304 -477,1397 -276,1699 48,72 332,99 402,103 507,26 1041,-6 1547,-43 727,-54 1453,-133 2176,-216 1786,-207 3567,-448 5353,-647 1572,-174 3159,-324 4740,-372 1312,-41 2761,-24 4046,256l17498 3821c531,116 885,608 827,1148 -59,540 -510,945 -1053,945l-77645 0c-543,0 -994,-405 -1052,-945 -58,-540 296,-1032 827,-1148l17498 -3821c1285,-281 2734,-297 4046,-256 1581,48 3168,198 4740,372 1787,198 3568,440 5353,647 723,83 1450,162 2176,216 506,37 1040,69 1547,43 70,-4 354,-31 402,-103 201,-302 -159,-1395 -276,-1699 -184,-480 -414,-953 -664,-1403 -103,-186 -233,-422 -363,-614l-4 -2c-676,-388 -959,-1217 -663,-1937l1311 -3193c-356,-825 -528,-1726 -528,-2624 0,-855 158,-1722 483,-2517 -108,-103 -203,-223 -281,-357l-513 -888c-280,-485 -280,-1069 0,-1554l513 -889c45,-77 96,-150 152,-218 -221,-347 -354,-745 -354,-1187 0,-831 470,-1506 1110,-1979l0 -6659 -842 -1632c-197,-381 -228,-813 -88,-1219 48,-139 114,-268 195,-385 -468,-658 -742,-1439 -742,-2280 0,-1014 398,-1943 1059,-2673 -415,-430 -692,-972 -692,-1614 0,-831 470,-1506 1110,-1979l0 -16185c-637,-471 -1110,-1139 -1110,-1978 0,-844 465,-1499 1099,-1967 -761,-1259 -1086,-2913 -1086,-4259 0,-508 -783,-1436 -1116,-1771 -1001,-1008 -2315,-1759 -3652,-2218 -1369,-472 -3019,-522 -4453,-428 -1899,125 -4353,579 -6105,1351 -3475,1530 -6545,2507 -10419,2252 -2068,-136 -4179,-910 -6044,-1867 -126,115 -259,222 -399,319l16615 49224 682 0c912,0 1655,743 1655,1655 0,913 -743,1656 -1655,1656l-756 0c-5696,3257 -12151,4973 -18716,4973 -6565,0 -13019,-1716 -18715,-4973l-765 0c-912,0 -1655,-743 -1655,-1656 0,-912 743,-1655 1655,-1655l681 0 16622 -49219c-1011,-700 -1645,-1864 -1645,-3139 0,-2108 1710,-3818 3818,-3818 1879,0 3442,1358 3759,3147 2265,165 4706,213 6908,-96 1764,-248 3683,-1044 5330,-1714 2144,-872 4271,-1767 6508,-2377 303,-82 607,-159 912,-230 4142,-959 7878,-241 11664,1317 220,-1596 522,-3277 1017,-4785 406,-1237 1173,-3053 2727,-3053 1554,0 2321,1816 2726,3053 495,1508 798,3190 1018,4787 3787,-1559 7525,-2279 11668,-1319 307,71 612,149 916,232 2236,609 4363,1504 6505,2376 1647,669 3565,1466 5329,1713 2202,309 4643,261 6908,96 317,-1789 1880,-3147 3759,-3147 2108,0 3818,1709 3818,3818 0,1274 -633,2437 -1642,3137l16613 49221 682 0c913,0 1656,743 1656,1655 0,913 -743,1656 -1656,1656l-755 0c-5696,3257 -12151,4973 -18716,4973 -6565,0 -13019,-1716 -18715,-4973l-765 0c-912,0 -1655,-743 -1655,-1656 0,-912 743,-1655 1655,-1655l681 0 16623 -49222c-141,-98 -275,-205 -402,-321 -1865,957 -3976,1731 -6044,1867 -3874,255 -6944,-722 -10419,-2252 -1752,-772 -4206,-1226 -6105,-1351 -1434,-94 -3084,-44 -4453,428 -1337,459 -2651,1210 -3652,2218 -332,335 -1116,1263 -1116,1771 0,1346 -325,3000 -1086,4258zm37161 42604l13700 0 -13700 -40589 0 40589zm-3425 -40569l-13701 40569 13701 0 0 -40569zm-74224 40569l13699 0 -13699 -40589 0 40589zm-3426 -40569l-13700 40569 13700 0 0 -40569z"/>
 </g>
</svg>
